<svg width="1256" height="509" xmlns="http://www.w3.org/2000/svg" xmlns:xlink="http://www.w3.org/1999/xlink" xml:space="preserve" overflow="hidden"><defs><filter id="fx0" x="-10%" y="-10%" width="120%" height="120%" filterUnits="userSpaceOnUse" primitiveUnits="userSpaceOnUse"><feComponentTransfer color-interpolation-filters="sRGB"><feFuncR type="discrete" tableValues="0.082353 0.082353"/><feFuncG type="discrete" tableValues="0.376471 0.376471"/><feFuncB type="discrete" tableValues="0.509804 0.509804"/><feFuncA type="linear" slope="1.000000" intercept="0.000000"/></feComponentTransfer><feGaussianBlur stdDeviation="0.000000 0.000000"/></filter><clipPath id="clip1"><rect x="1.01506" y="0.585938" width="1129.38" height="375.651"/></clipPath><linearGradient x1="197.371" y1="2253.74" x2="1362.68" y2="2253.74" gradientUnits="userSpaceOnUse" spreadMethod="reflect" id="stroke2"><stop offset="0" stop-color="#FF0000" stop-opacity="1"/><stop offset="0.16" stop-color="#FFC000" stop-opacity="1"/><stop offset="0.34" stop-color="#FFFF00" stop-opacity="1"/><stop offset="0.51" stop-color="#006600" stop-opacity="1"/><stop offset="0.67" stop-color="#0000CC" stop-opacity="1"/><stop offset="0.83" stop-color="#000099" stop-opacity="1"/><stop offset="1" stop-color="#6600CC" stop-opacity="1"/></linearGradient></defs><g transform="translate(-160 -2016)"><g><g clip-path="url(#clip1)" filter="url(#fx0)" transform="translate(229 2127)"><g><g><path d="M998.275 295.493C980.028 299.341 966.437 304.683 957.501 311.519 950.905 316.354 947.607 322.037 947.607 328.565 947.607 336.06 953.893 342.558 966.463 348.057 978.335 353.078 996.653 355.588 1021.42 355.588 1040.8 355.588 1057.55 352.63 1071.68 346.715 1082.27 341.967 1087.56 336.455 1087.56 330.179 1087.56 323.944 1085.14 318.81 1080.3 314.777 1073.24 308.807 1063.31 304.908 1050.5 303.081L1041.29 301.543C1033 300.161 1026.4 299.196 1021.5 298.65 1013.18 297.31 1005.44 296.258 998.275 295.493ZM1014.56 125.292C999.132 125.292 987.496 130.254 979.652 140.177 971.733 149.941 967.773 162.053 967.773 176.514 967.773 191.016 971.594 202.979 979.237 212.403 987.345 222.893 999.119 228.139 1014.56 228.139 1029.63 228.139 1041.33 222.748 1049.66 211.968 1057.18 202.444 1060.94 190.626 1060.94 176.514 1060.94 162.183 1057.03 150.199 1049.22 140.561 1041.17 130.382 1029.62 125.292 1014.56 125.292ZM404.15 125.292C387.799 125.292 373.559 131.863 361.43 145.004 348.948 158.759 342.215 174.371 341.232 191.84L462.228 191.84C460.934 170.077 455.09 153.222 444.696 141.273 435.252 130.619 421.737 125.292 404.15 125.292ZM727.914 107.143 727.914 138.682 732.09 135.358C741.178 128.249 748.814 123.045 754.999 119.746 769.326 111.882 784.093 107.949 799.301 107.949 817.316 107.949 831.309 113.52 841.278 124.662 851.206 135.757 856.17 151.025 856.17 170.464L856.17 276.94C856.17 284.654 857.783 289.823 861.009 292.449 864.337 295.554 871.866 297.106 883.595 297.106L883.595 315.659 795.268 315.659 795.268 297.106C806.868 297.106 814.233 295.737 817.363 292.997 821.186 289.893 823.097 284.54 823.097 276.94L823.097 169.254C823.097 157.36 820.766 148.59 816.102 142.943 811.342 136.822 803.188 133.762 791.638 133.762 779.505 133.762 767.906 136.459 756.839 141.853 747.895 146.189 738.253 152.924 727.914 162.057L727.914 276.94C727.914 284.654 729.813 290.055 733.611 293.142 736.631 295.785 744.009 297.106 755.743 297.106L755.743 315.659 667.416 315.659 667.416 297.106C679.284 297.106 686.924 295.514 690.336 292.33 693.34 289.729 694.841 284.599 694.842 276.94L694.842 155.944C694.841 148.348 693.556 143.462 690.985 141.286 688.233 138.959 681.007 137.795 669.306 137.795L667.416 124.529ZM607.179 107.143 607.179 280.974C607.179 287.746 608.438 292.031 610.954 293.829 614.013 296.014 622.031 297.106 635.009 297.106L635.009 315.659 546.681 315.659 546.681 297.106C558.499 297.106 565.971 296.067 569.097 293.987 572.437 291.895 574.107 287.557 574.107 280.974L574.107 154.734C574.107 149.827 572.994 146.431 570.767 144.544 566.923 141.658 558.995 140.215 546.984 140.215L545.068 127.51ZM404.553 107.143C433.038 107.143 454.336 115.478 468.448 132.148 487.963 151.125 497.72 177.61 497.72 211.602L341.232 211.602C341.232 241.301 348.761 266.173 363.818 286.217 375.346 295.09 391.479 299.526 412.217 299.526 427.677 299.526 440.718 296.875 451.339 291.573 464.598 284.318 477.212 273.794 489.181 260.001L500.14 268.647C489.133 286.326 477.147 299.253 464.182 307.429 448.255 317.487 429.051 322.516 406.57 322.516 376.338 322.516 351.884 312.472 333.21 292.386 315.165 272.397 306.143 246.275 306.143 214.022 306.143 183.668 314.613 159.694 331.552 142.099 350.794 118.795 375.128 107.143 404.553 107.143ZM1104.5 105.126C1109.92 105.126 1114.86 106.556 1119.32 109.417 1125.03 112.98 1127.89 117.465 1127.89 122.872 1127.89 128.229 1126 132.8 1122.21 136.585 1118.85 140.618 1114.43 142.635 1108.94 142.635 1106.07 142.635 1103.31 141.971 1100.65 140.643 1099.58 140.106 1098.09 139.362 1096.19 138.412 1092.26 136.056 1089.4 134.764 1087.6 134.537 1085.62 134.289 1083.46 134.81 1081.11 136.1 1085.08 140.347 1088.57 147.699 1091.59 158.156 1094.28 162.71 1095.63 168.964 1095.63 176.917 1095.63 198.024 1087.54 215.073 1071.38 228.063 1056.4 240.213 1037.46 246.288 1014.56 246.288 1007.11 246.288 1001.7 246.007 998.312 245.444 993.552 245.179 988.572 244.25 983.371 242.658 978.384 243.851 973.953 245.555 970.08 247.769 968.004 249.012 966.967 249.981 966.967 250.674 966.698 253.245 967.101 255.041 968.177 256.062 970.139 258.461 973.661 260.177 978.745 261.211L1027.69 268.918 1062.44 274.583C1079.29 277.394 1092.42 282.217 1101.82 289.053 1113.29 297.501 1119.02 308.79 1119.02 322.919 1119.02 341.346 1108.39 354.84 1087.14 363.402 1070.05 370.292 1045.86 373.737 1014.56 373.737 980.839 373.737 955.142 369.542 937.468 361.152 922.448 353.779 914.938 342.245 914.938 326.549 914.938 315.903 921.795 306.639 935.508 298.757 948.536 290.557 961.577 286.185 974.63 285.643 961.232 285.08 950.952 282.507 943.789 277.923 936.655 273.382 933.088 267.542 933.088 260.404 933.088 253.22 938.186 246.687 948.383 240.805 953.63 237.755 960.631 235.489 969.387 234.006 958.93 231.136 950.267 224.404 943.398 213.808 936.256 202.666 932.685 190.235 932.685 176.514 932.685 154.772 940.909 137.44 957.356 124.517 971.695 112.934 990.763 107.143 1014.56 107.143 1027.89 107.143 1039.92 108.974 1050.63 112.638 1059.35 115.545 1065.53 119.225 1069.18 123.679 1072.96 118.36 1078.18 113.957 1084.86 110.47 1091.69 106.907 1098.23 105.126 1104.5 105.126ZM591.047 3.08588C599.067 3.08591 605.224 5.37559 609.517 9.95493 614.681 15.1183 617.262 21.1639 617.262 28.0917 617.262 34.5239 614.672 40.33 609.492 45.5101 605.253 50.0307 599.105 52.291 591.047 52.291 582.501 52.291 575.645 49.2682 570.477 43.2225 566.982 39.5927 565.234 34.5491 565.234 28.0917 565.234 21.1387 566.982 15.8262 570.477 12.1543 575.683 6.10871 582.539 3.08591 591.047 3.08588ZM130.964 3.08588C142.455 3.08591 153.225 4.15091 163.274 6.28092 168.53 7.28504 176.344 9.64612 186.717 13.3642L189.666 14.7822 221.579 5.10248 251.96 86.5606 239.294 91.8163C225.043 71.936 210.948 56.4712 197.008 45.4219 176.733 29.5664 155.121 21.6386 132.174 21.6386 104.816 21.6386 80.2278 35.2171 58.4107 62.374 46.2817 87.2622 40.2172 120.2 40.2172 161.187 40.2172 199.62 50.5271 231.556 71.1468 256.995 90.4558 281.316 115.907 293.476 147.5 293.476 167.923 293.476 185.833 288.216 201.23 277.697 217.082 266.782 231.943 248.784 245.816 223.702L259.22 229.544C248.045 258.343 233.666 280.28 216.084 295.354 194.632 313.462 168.679 322.516 138.224 322.516 99.2994 322.516 67.4833 308.496 42.7758 280.457 16.602 250.699 3.51507 210.943 3.51507 161.187 3.51507 117.02 16.0033 79.5109 40.9797 48.6611 62.7968 18.2776 92.7917 3.08591 130.964 3.08588Z" stroke="#FF0000" stroke-width="5" stroke-linecap="butt" stroke-linejoin="round" stroke-miterlimit="10" stroke-opacity="1" fill="#FFFFFF" fill-rule="evenodd" fill-opacity="1"/></g></g></g><path d="M1215.52 2411.14C1197.28 2414.99 1183.69 2420.33 1174.75 2427.17 1168.15 2432.01 1164.86 2437.69 1164.86 2444.22 1164.86 2451.71 1171.14 2458.21 1183.71 2463.71 1195.58 2468.73 1213.9 2471.24 1238.66 2471.24 1258.04 2471.24 1274.8 2468.28 1288.93 2462.37 1299.51 2457.62 1304.81 2452.11 1304.81 2445.83 1304.81 2439.6 1302.39 2434.46 1297.55 2430.43 1290.49 2424.46 1280.56 2420.56 1267.75 2418.73L1258.54 2417.19C1250.25 2415.81 1243.65 2414.85 1238.75 2414.3 1230.43 2412.96 1222.69 2411.91 1215.52 2411.14ZM1231.81 2240.94C1216.38 2240.94 1204.74 2245.91 1196.9 2255.83 1188.98 2265.59 1185.02 2277.7 1185.02 2292.17 1185.02 2306.67 1188.84 2318.63 1196.48 2328.05 1204.59 2338.55 1216.37 2343.79 1231.81 2343.79 1246.88 2343.79 1258.58 2338.4 1266.91 2327.62 1274.43 2318.1 1278.19 2306.28 1278.19 2292.17 1278.19 2277.83 1274.28 2265.85 1266.47 2256.21 1258.42 2246.03 1246.86 2240.94 1231.81 2240.94ZM621.399 2240.94C605.047 2240.94 590.807 2247.51 578.678 2260.66 566.196 2274.41 559.464 2290.02 558.481 2307.49L679.477 2307.49C678.183 2285.73 672.339 2268.87 661.945 2256.93 652.5 2246.27 638.985 2240.94 621.399 2240.94ZM945.162 2222.79 945.162 2254.33 949.339 2251.01C958.426 2243.9 966.062 2238.7 972.248 2235.4 986.574 2227.53 1001.34 2223.6 1016.55 2223.6 1034.56 2223.6 1048.56 2229.17 1058.53 2240.31 1068.45 2251.41 1073.42 2266.68 1073.42 2286.12L1073.42 2392.59C1073.42 2400.31 1075.03 2405.48 1078.26 2408.1 1081.59 2411.21 1089.11 2412.76 1100.84 2412.76L1100.84 2431.31 1012.52 2431.31 1012.52 2412.76C1024.12 2412.76 1031.48 2411.39 1034.61 2408.65 1038.43 2405.54 1040.35 2400.19 1040.35 2392.59L1040.35 2284.91C1040.35 2273.01 1038.01 2264.24 1033.35 2258.6 1028.59 2252.47 1020.44 2249.41 1008.89 2249.41 996.754 2249.41 985.154 2252.11 974.088 2257.5 965.143 2261.84 955.502 2268.58 945.162 2277.71L945.162 2392.59C945.162 2400.31 947.061 2405.71 950.859 2408.79 953.88 2411.44 961.257 2412.76 972.991 2412.76L972.991 2431.31 884.664 2431.31 884.664 2412.76C896.533 2412.76 904.173 2411.17 907.584 2407.98 910.588 2405.38 912.09 2400.25 912.09 2392.59L912.09 2271.6C912.09 2264 910.804 2259.11 908.233 2256.94 905.481 2254.61 898.255 2253.45 886.555 2253.45L884.664 2240.18ZM824.428 2222.79 824.428 2396.63C824.428 2403.4 825.686 2407.68 828.203 2409.48 831.261 2411.67 839.279 2412.76 852.257 2412.76L852.257 2431.31 763.93 2431.31 763.93 2412.76C775.748 2412.76 783.22 2411.72 786.346 2409.64 789.686 2407.55 791.356 2403.21 791.356 2396.63L791.356 2270.39C791.356 2265.48 790.242 2262.08 788.016 2260.2 784.172 2257.31 776.244 2255.87 764.232 2255.87L762.317 2243.16ZM621.802 2222.79C650.286 2222.79 671.585 2231.13 685.697 2247.8 705.211 2266.78 714.969 2293.26 714.969 2327.25L558.481 2327.25C558.481 2356.95 566.009 2381.82 581.067 2401.87 592.595 2410.74 608.728 2415.18 629.465 2415.18 644.926 2415.18 657.966 2412.53 668.587 2407.23 681.846 2399.97 694.46 2389.45 706.43 2375.65L717.389 2384.3C706.382 2401.98 694.395 2414.9 681.43 2423.08 665.503 2433.14 646.299 2438.17 623.819 2438.17 593.586 2438.17 569.133 2428.12 550.458 2408.04 532.414 2388.05 523.392 2361.93 523.392 2329.67 523.392 2299.32 531.862 2275.35 548.801 2257.75 568.043 2234.45 592.376 2222.79 621.802 2222.79ZM1321.75 2220.78C1327.17 2220.78 1332.11 2222.21 1336.57 2225.07 1342.28 2228.63 1345.14 2233.12 1345.14 2238.52 1345.14 2243.88 1343.25 2248.45 1339.46 2252.24 1336.1 2256.27 1331.67 2258.29 1326.18 2258.29 1323.32 2258.29 1320.56 2257.62 1317.9 2256.29 1316.83 2255.76 1315.34 2255.01 1313.44 2254.06 1309.51 2251.71 1306.65 2250.42 1304.85 2250.19 1302.87 2249.94 1300.71 2250.46 1298.35 2251.75 1302.33 2256 1305.82 2263.35 1308.84 2273.81 1311.53 2278.36 1312.87 2284.62 1312.87 2292.57 1312.87 2313.68 1304.79 2330.72 1288.62 2343.71 1273.65 2355.86 1254.71 2361.94 1231.81 2361.94 1224.36 2361.94 1218.95 2361.66 1215.56 2361.1 1210.8 2360.83 1205.82 2359.9 1200.62 2358.31 1195.63 2359.5 1191.2 2361.21 1187.33 2363.42 1185.25 2364.66 1184.22 2365.63 1184.22 2366.33 1183.95 2368.9 1184.35 2370.69 1185.43 2371.71 1187.39 2374.11 1190.91 2375.83 1195.99 2376.86L1244.93 2384.57 1279.69 2390.24C1296.54 2393.05 1309.67 2397.87 1319.07 2404.7 1330.53 2413.15 1336.27 2424.44 1336.27 2438.57 1336.27 2457 1325.64 2470.49 1304.39 2479.05 1287.3 2485.94 1263.11 2489.39 1231.81 2489.39 1198.09 2489.39 1172.39 2485.19 1154.72 2476.8 1139.7 2469.43 1132.19 2457.9 1132.19 2442.2 1132.19 2431.55 1139.04 2422.29 1152.76 2414.41 1165.78 2406.21 1178.83 2401.84 1191.88 2401.29 1178.48 2400.73 1168.2 2398.16 1161.04 2393.58 1153.9 2389.03 1150.34 2383.19 1150.34 2376.06 1150.34 2368.87 1155.43 2362.34 1165.63 2356.46 1170.88 2353.41 1177.88 2351.14 1186.64 2349.66 1176.18 2346.79 1167.52 2340.06 1160.65 2329.46 1153.5 2318.32 1149.93 2305.89 1149.93 2292.17 1149.93 2270.42 1158.16 2253.09 1174.6 2240.17 1188.94 2228.59 1208.01 2222.79 1231.81 2222.79 1245.14 2222.79 1257.17 2224.63 1267.88 2228.29 1276.6 2231.2 1282.78 2234.88 1286.43 2239.33 1290.2 2234.01 1295.43 2229.61 1302.11 2226.12 1308.94 2222.56 1315.48 2220.78 1321.75 2220.78ZM808.295 2118.74C816.315 2118.74 822.472 2121.03 826.766 2125.61 831.929 2130.77 834.511 2136.82 834.511 2143.74 834.511 2150.18 831.921 2155.98 826.741 2161.16 822.502 2165.68 816.353 2167.94 808.295 2167.94 799.75 2167.94 792.893 2164.92 787.726 2158.87 784.23 2155.24 782.483 2150.2 782.483 2143.74 782.483 2136.79 784.23 2131.48 787.726 2127.81 792.931 2121.76 799.788 2118.74 808.295 2118.74ZM348.213 2118.74C359.703 2118.74 370.473 2119.8 380.522 2121.93 385.778 2122.94 393.593 2125.3 403.965 2129.02L406.915 2130.43 438.827 2120.75 469.209 2202.21 456.542 2207.47C442.291 2187.59 428.196 2172.12 414.256 2161.07 393.981 2145.22 372.37 2137.29 349.423 2137.29 322.064 2137.29 297.476 2150.87 275.659 2178.03 263.53 2202.91 257.466 2235.85 257.466 2276.84 257.466 2315.27 267.776 2347.21 288.395 2372.65 307.704 2396.97 333.155 2409.13 364.749 2409.13 385.171 2409.13 403.081 2403.87 418.479 2393.35 434.33 2382.43 449.192 2364.44 463.065 2339.35L476.469 2345.2C465.293 2374 450.914 2395.93 433.332 2411.01 411.881 2429.11 385.927 2438.17 355.473 2438.17 316.548 2438.17 284.732 2424.15 260.024 2396.11 233.85 2366.35 220.764 2326.59 220.764 2276.84 220.764 2232.67 233.252 2195.16 258.228 2164.31 280.045 2133.93 310.04 2118.74 348.213 2118.74Z" stroke="url(#stroke2)" stroke-width="5" stroke-linecap="butt" stroke-linejoin="round" stroke-miterlimit="10" fill="#FFFFFF" fill-rule="evenodd" fill-opacity="1"/><text fill="#000000" fill-opacity="0" font-family="Arial,Arial_MSFontService,sans-serif" font-size="370.651" direction="ltr" writing-mode="lr-tb" x="220.764" y="2443.06">Ceing</text></g></g></svg>